<?xml version="1.0" standalone="no"?>
<!DOCTYPE svg PUBLIC "-//W3C//DTD SVG 20010904//EN"
 "http://www.w3.org/TR/2001/REC-SVG-20010904/DTD/svg10.dtd">
<svg version="1.0" xmlns="http://www.w3.org/2000/svg"
 width="50.000000pt" height="80.000000pt" viewBox="4 70 3.000 190.000000"
 preserveAspectRatio="xMidYMid meet">

<g transform="translate(0.000000,200.000000) 
scale(0.100000,-0.100000)"
fill="red" stroke="none">
<path d="M131 1922 c-19 -10 -43 -34 -53 -53 -17 -32 -18 -79 -18 -869 0 -790
1 -837 18 -869 10 -19 34 -43 53 -53 32 -17 79 -18 869 17 790 0 837 1 869
18 19 10 43 34 53 53 17 32 18 79 18 869 0 790 -1 837 -18 869 -10 19 -34 43
-53 53 -32 17 -79 18 -869 18 -790 0 -837 -1 -869 -18z m359 -687 c13 -4 38
-45 74 -121 l55 -114 -55 -115 c-44 -93 -59 -116 -80 -121 -25 -7 -211 0 -218
7 -2 2 -29 55 -60 116 l-56 113 57 115 c32 63 64 116 73 118 31 6 191 8 210 2z
m308 -221 c15 -11 15 -13 2 -14 -31 0 -40 23 -40 100 0 105 14 112 18 9 2 -64
7 -85 20 -95z m332 156 c0 -5 -4 -10 -10 -10 -5 0 -10 5 -10 10 0 6 5 10 10
10 6 0 10 -4 10 -10z m400 0 c0 -5 -7 -10 -15 -10 -8 0 -15 5 -15 10 0 6 7 10
15 10 8 0 15 -4 15 -10z m-330 -25 c0 -8 0 -16 23 -16 l22 -2 -22 -4 c-20 -4
-23 -11 -23 -54 0 -42 3 -49 20 -49 11 0 20 -4 20 -10 0 -14 -33 -13 -48 2 -7
7 -12 34 -12 60 0 31 -4 48 -12 49 -10 0 -10 2 0 6 6 2 12 11 12 19 0 8 5 14
10 14 6 0 10 -7 10 -15z m230 0 c0 -8 10 -16 23 -16 l22 -2 -23 -4 c-21 -4
-23 -9 -20 -51 3 -40 7 -47 28 -53 23 -6 23 -7 6 -14 -32 -14 -51 8 -54 61 -2
27 -9 52 -15 56 -9 6 -9 8 1 8 6 0 12 7 12 15 0 8 5 15 10 15 6 0 10 -7 10
-15z m-502 -33 c6 -9 12 -24 12 -34 0 -15 -8 -18 -46 -18 -38 0 -45 -3 -42
-17 4 -22 44 -29 64 -13 11 10 14 9 14 -3 0 -19 -33 -31 -66 -23 -43 11 -47
101 -5 122 27 14 50 9 69 -14z m413 18 c15 -8 19 -21 19 -60 0 -30 5 -50 13
-53 6 -2 9 -8 5 -12 -4 -4 -14 -2 -22 4 -10 8 -16 9 -21 1 -11 -17 -54 -11
-65 9 -15 28 -2 50 34 59 17 5 32 16 34 25 4 19 -19 22 -49 7 -13 -8 -19 -7
-19 0 0 6 10 15 23 20 29 11 26 11 48 0z m327 -18 c31 -39 2 -112 -45 -112
-29 0 -63 33 -63 61 0 64 70 97 108 51z m136 15 c20 -14 33 -87 20 -114 -6
-13 -10 -3 -14 36 -9 96 -70 96 -70 0 0 -27 -4 -49 -10 -49 -6 0 -10 29 -10
66 0 51 3 65 13 61 8 -3 20 -1 28 4 19 12 22 11 43 -4z m-806 -49 l20 -53 15
35 c8 19 17 43 20 53 4 9 11 17 17 17 13 0 -33 -123 -48 -128 -11 -3 -38 47
-56 106 -15 45 12 20 32 -30z m132 -13 c0 -37 -4 -65 -10 -65 -6 0 -10 28 -10
65 0 37 4 65 10 65 6 0 10 -28 10 -65z m387 -32 c-2 -21 -4 -6 -4 32 0 39 2
55 4 38 2 -18 2 -50 0 -70z m-637 -163 c-13 -9 -13 -11 0 -20 10 -6 11 -10 3
-10 -7 0 -14 -12 -14 -27 l-1 -28 -7 30 c-8 33 3 65 22 65 8 0 6 -4 -3 -10z
m315 -25 c15 0 20 -7 22 -30 2 -28 1 -28 -5 -5 -5 14 -14 25 -22 25 -8 0 -17
-11 -21 -25 -5 -19 -7 -14 -7 20 0 25 2 38 6 30 4 -8 16 -15 27 -15z m-193 -3
c-15 -5 -16 -48 -2 -55 6 -3 5 -4 -2 -3 -12 2 -30 61 -21 70 3 3 12 2 21 -2
10 -4 12 -7 4 -10z m-245 -39 c-3 -10 -5 -2 -5 17 0 19 2 27 5 18 2 -10 2 -26
0 -35z m79 14 c1 -26 1 -26 -3 -2 -6 33 -34 30 -44 -5 -7 -24 -7 -23 -8 6 -1
28 2 31 27 30 22 -1 27 -6 28 -29z m122 7 c4 -29 -23 -51 -43 -34 -16 13 -20
42 -8 54 14 14 48 1 51 -20z m120 3 c3 -13 -3 -17 -23 -17 -16 0 -24 -4 -19
-11 3 -6 15 -8 27 -5 14 3 17 2 9 -6 -25 -25 -65 20 -42 48 17 19 44 14 48 -9z
m66 15 c3 -5 -5 -8 -17 -8 -16 1 -22 -5 -22 -19 0 -15 6 -19 25 -18 22 2 23 1
7 -8 -20 -12 -47 3 -47 25 0 26 42 48 54 28z"/>
<path d="M260 1055 l-42 -55 37 -50 c20 -27 39 -50 41 -50 2 0 -3 17 -12 38
-27 61 -27 67 0 121 15 28 25 51 22 51 -2 0 -23 -25 -46 -55z"/>
<path d="M495 1053 l25 -53 -25 -52 -26 -53 45 50 c25 28 45 52 45 55 0 3 -20
28 -45 55 l-45 50 26 -52z"/>
<path d="M863 1113 c-28 -11 -13 -33 22 -33 37 0 43 8 23 28 -13 13 -24 14
-45 5z"/>
<path d="M1302 1059 c-30 -11 -23 -34 9 -34 17 0 25 6 27 23 4 24 -1 26 -36
11z"/>
<path d="M1590 1101 c-22 -43 -5 -81 36 -81 23 0 34 17 34 54 0 44 -50 63 -70
27z"/>
<path d="M913 824 c-8 -21 13 -42 28 -27 13 13 5 43 -11 43 -6 0 -13 -7 -17
-16z"/>
<path d="M1040 830 c0 -5 7 -10 15 -10 8 0 15 5 15 10 0 6 -7 10 -15 10 -8 0
-15 -4 -15 -10z"/>
</g>
</svg>
